<?xml version="1.0" standalone="no"?>
<!DOCTYPE svg PUBLIC "-//W3C//DTD SVG 20010904//EN"
 "http://www.w3.org/TR/2001/REC-SVG-20010904/DTD/svg10.dtd">
<svg version="1.0" xmlns="http://www.w3.org/2000/svg"
 width="500.000000pt" height="500.000000pt" viewBox="0 0 500.000000 500.000000"
 preserveAspectRatio="xMidYMid meet">

<g transform="translate(0.000000,500.000000) scale(0.100000,-0.100000)"
fill="#000000" stroke="none">
<path d="M2260 4988 c-489 -51 -940 -234 -1330 -542 -41 -33 -133 -118 -205
-190 -393 -396 -626 -875 -707 -1451 -16 -116 -16 -494 0 -610 68 -485 239
-887 540 -1270 82 -104 304 -320 412 -401 122 -91 241 -169 355 -230 l90 -48
175 -13 c259 -19 1136 -28 1301 -14 418 38 657 116 713 236 52 110 -5 237
-185 410 -271 260 -782 582 -1582 994 -119 62 -215 117 -212 122 4 5 0 6 -7 4
-8 -3 -53 13 -100 35 -47 22 -90 40 -95 40 -5 0 -15 -82 -22 -182 -22 -305
-37 -447 -51 -463 -12 -14 -52 -16 -65 -4 -3 4 1 107 9 230 8 123 18 281 22
350 l6 126 -122 74 c-620 376 -805 761 -559 1166 26 44 75 107 137 177 23 27
41 50 39 52 -2 2 -110 -17 -242 -41 -131 -25 -255 -45 -275 -45 -79 0 -69 52
12 65 24 3 144 26 268 50 124 24 254 49 289 55 56 10 75 20 160 84 435 331
1135 659 2169 1016 l196 68 -109 35 c-337 109 -699 149 -1025 115z"/>
<path d="M3250 4746 c-972 -331 -1686 -656 -2123 -968 -54 -38 -97 -72 -95
-74 3 -2 76 10 164 27 228 43 668 115 857 141 125 16 216 22 394 22 127 1 235
-3 239 -7 5 -4 3 -16 -2 -25 -9 -14 -36 -18 -165 -24 -237 -10 -983 -108
-1068 -140 -23 -8 -24 -10 -18 -96 20 -284 15 -1015 -9 -1393 l-7 -96 109 -54
c60 -29 113 -56 118 -58 5 -2 -6 10 -25 27 -31 28 -34 35 -34 89 1 154 153
278 284 232 26 -9 35 -8 51 6 10 9 30 15 47 13 l28 -3 -3 -90 c-3 -80 -1 -93
18 -113 27 -29 58 -36 138 -30 78 6 209 54 270 98 35 25 41 35 44 72 3 42 4
43 37 43 30 0 36 -4 45 -33 l11 -33 49 57 c57 66 99 94 141 94 63 0 95 -43
119 -160 19 -88 35 -115 79 -129 100 -33 321 74 329 160 2 27 8 35 26 37 29 4
50 -13 54 -44 5 -38 20 -32 55 22 60 91 102 107 147 54 l25 -30 33 62 c47 89
117 158 161 158 38 0 71 -29 80 -71 4 -14 2 -66 -4 -115 -6 -49 -14 -122 -19
-163 -11 -95 -1 -126 38 -116 15 3 52 25 82 48 42 33 56 51 62 80 23 113 108
175 200 148 69 -21 104 -114 78 -210 -24 -89 -121 -148 -193 -117 -35 14 -77
59 -77 82 0 22 -14 17 -46 -17 -43 -46 -114 -89 -147 -89 -42 0 -84 46 -92
103 -4 25 -2 91 4 147 14 131 14 162 -3 185 -13 18 -14 18 -31 -3 -25 -28 -63
-120 -92 -222 -29 -102 -46 -130 -76 -130 -38 0 -47 19 -47 101 0 122 -21 113
-79 -34 -43 -107 -57 -127 -92 -127 -37 0 -49 24 -49 99 l0 61 -47 -34 c-126
-89 -244 -128 -323 -106 -57 16 -121 79 -143 143 -10 26 -24 67 -33 92 -18 50
-31 55 -61 23 -30 -33 -48 -72 -78 -173 -32 -106 -53 -134 -88 -118 -19 9 -25
21 -30 65 -4 29 -7 70 -7 90 l0 38 -48 -35 c-113 -81 -283 -141 -378 -133 -58
5 -124 45 -124 76 0 11 -12 3 -35 -24 -47 -56 -124 -104 -169 -106 -20 -1 -35
-2 -34 -4 2 -1 122 -65 268 -141 783 -412 1225 -695 1494 -953 162 -156 225
-258 226 -363 0 -149 -129 -243 -423 -306 -304 -65 -991 -84 -1572 -42 -66 5
-121 7 -123 6 -7 -6 165 -67 279 -100 498 -144 1054 -121 1548 61 228 85 499
239 701 398 95 75 299 279 372 371 300 380 472 785 540 1270 7 50 13 186 13
305 0 119 -6 255 -13 305 -70 503 -253 920 -570 1303 -211 255 -501 482 -807
632 -78 39 -148 70 -156 69 -8 0 -97 -29 -199 -63z m1221 -2504 c-4 -143 25
-184 93 -131 40 31 50 57 56 139 l5 74 34 10 c28 8 36 7 48 -10 30 -39 -3
-558 -46 -725 -80 -311 -313 -541 -586 -578 -102 -14 -183 4 -233 52 -53 50
-65 81 -60 156 8 143 142 325 387 529 75 62 323 228 399 266 28 14 52 33 52
41 0 11 -9 8 -36 -10 -27 -18 -50 -25 -86 -25 -65 0 -103 27 -135 97 -21 45
-25 66 -21 120 5 81 28 106 92 101 l40 -3 -3 -103z"/>
<path d="M4516 1923 c-387 -280 -634 -550 -653 -712 -5 -41 -2 -51 22 -79 55
-66 156 -63 295 9 185 96 332 295 400 543 20 71 42 294 30 301 -3 1 -45 -27
-94 -62z"/>
<path d="M1220 3664 c-41 -7 -128 -23 -192 -35 l-118 -22 -90 -93 c-271 -280
-316 -554 -134 -830 89 -136 310 -326 528 -455 99 -58 101 -59 109 -37 11 29
15 1400 4 1451 -4 20 -13 37 -20 36 -7 -1 -46 -7 -87 -15z"/>
<path d="M4157 2325 c-14 -14 -57 -115 -57 -134 0 -5 10 -7 21 -4 20 5 20 4 9
-18 -7 -13 -19 -31 -27 -40 -22 -26 -6 -51 30 -47 62 6 98 107 74 203 -13 53
-27 64 -50 40z"/>
<path d="M1772 2290 c-79 -49 -112 -220 -41 -220 23 0 93 78 123 139 38 75 38
77 -34 97 -8 2 -30 -5 -48 -16z"/>
</g>
</svg>
