<?xml version="1.0" standalone="no"?>
<!DOCTYPE svg PUBLIC "-//W3C//DTD SVG 20010904//EN"
 "http://www.w3.org/TR/2001/REC-SVG-20010904/DTD/svg10.dtd">
<svg version="1.0" xmlns="http://www.w3.org/2000/svg"
 width="399.000000pt" height="327.000000pt" viewBox="0 0 399.000000 327.000000"
 preserveAspectRatio="xMidYMid meet">

<g transform="translate(0.000000,327.000000) scale(0.100000,-0.100000)"
fill="#000000" stroke="none">
<path d="M0 1635 l0 -1635 1995 0 1995 0 0 1635 0 1635 -1995 0 -1995 0 0
-1635z m2201 1570 c181 -31 299 -70 463 -151 295 -147 586 -446 713 -733 l24
-53 -28 -47 -27 -46 -8 33 c-5 18 -16 36 -24 39 -8 3 -31 37 -50 76 -136 269
-378 508 -658 649 -106 53 -287 112 -411 133 -64 11 -151 17 -240 17 -143 -1
-440 34 -413 48 7 4 51 15 98 24 47 8 94 18 105 20 56 11 379 5 456 -9z
m-1056 -75 c4 -6 55 -10 120 -10 183 0 521 -50 611 -90 31 -13 44 -25 44 -39
0 -24 -24 -27 -80 -11 -19 6 -102 22 -185 36 -160 27 -458 43 -483 26 -17 -11
-29 -66 -93 -431 -85 -482 -110 -666 -168 -1239 -31 -295 -42 -377 -55 -390
-14 -14 -18 -14 -31 -2 -12 13 -12 45 1 250 16 241 14 328 -11 485 -36 231
-107 414 -226 578 -73 103 -130 155 -329 301 -194 142 -200 147 -200 185 0 45
34 75 138 123 157 73 538 169 787 199 55 7 107 18 115 25 17 16 36 18 45 4z
m121 -171 c-32 -17 -60 -28 -62 -26 -3 3 -2 16 2 31 6 24 10 26 63 26 l56 -1
-59 -30z m2344 -529 c13 -8 15 -48 15 -260 0 -137 1 -250 3 -250 4 0 245 141
267 156 25 18 55 18 55 1 0 -20 -25 -40 -110 -87 -41 -24 -109 -65 -151 -92
l-77 -50 -12 -77 c-69 -440 -220 -696 -408 -694 -88 1 -142 59 -142 155 0 137
157 359 377 534 54 42 101 80 105 83 16 15 53 495 37 485 -4 -2 -56 -84 -115
-182 -107 -175 -193 -282 -228 -282 -9 0 -29 12 -43 26 -24 24 -25 30 -20 102
8 119 60 225 101 209 21 -8 20 -28 -4 -104 -10 -34 -22 -86 -26 -115 l-7 -53
37 35 c45 42 132 168 211 305 62 107 102 165 113 165 4 0 14 -5 22 -10z
m-3061 -185 l29 -39 -30 -85 c-55 -166 -72 -269 -72 -461 0 -202 20 -328 80
-502 136 -393 456 -730 836 -880 59 -23 108 -47 108 -53 0 -5 -8 -27 -18 -47
l-17 -37 -106 43 c-194 81 -361 191 -516 344 -218 214 -352 455 -434 782 -17
69 -22 126 -26 300 -5 192 -3 228 16 328 26 137 102 364 117 349 3 -2 17 -21
33 -42z m1868 23 c3 -6 11 -31 18 -57 l11 -46 66 63 c54 52 71 63 94 60 39 -4
46 -43 33 -193 -26 -303 35 -335 188 -97 29 45 57 82 61 82 5 0 19 23 32 51
27 57 82 111 105 103 18 -7 20 -37 4 -63 -10 -14 -8 -24 10 -48 33 -43 42 -98
30 -172 -15 -97 -59 -169 -116 -192 -55 -21 -103 36 -103 122 l0 42 -41 -52
c-43 -54 -111 -101 -146 -101 -34 0 -71 38 -89 92 -14 42 -16 72 -11 162 4 61
10 129 13 151 l7 40 -50 -46 c-71 -66 -89 -74 -119 -54 -14 9 -27 29 -31 46
-3 16 -9 32 -14 34 -11 8 -49 -47 -100 -144 -41 -77 -86 -131 -111 -131 -6 0
-22 13 -36 28 l-26 29 -36 -44 c-79 -95 -148 -118 -196 -66 -32 35 -54 111
-54 192 l-1 66 -23 -26 c-12 -15 -41 -60 -63 -100 -48 -86 -76 -119 -103 -119
-21 0 -50 36 -50 62 0 15 -8 13 -51 -17 -34 -23 -63 -35 -86 -35 -66 0 -127
50 -139 116 -8 41 -17 36 -49 -25 -51 -101 -100 -134 -140 -94 -14 14 -16 30
-13 83 11 151 137 311 230 293 31 -6 78 -48 78 -70 0 -21 -29 -27 -48 -11 -26
24 -45 26 -74 12 -45 -23 -125 -175 -116 -221 2 -11 26 22 62 85 32 57 64 106
72 109 27 10 41 -16 46 -88 8 -109 53 -150 129 -118 44 17 115 102 122 142 14
89 84 184 107 147 9 -14 6 -28 -26 -133 -42 -136 -33 -145 37 -39 64 97 95
127 123 116 20 -8 24 -23 35 -152 13 -136 35 -172 91 -142 36 19 137 174 145
221 4 24 17 68 30 97 19 42 28 52 48 52 34 0 40 -22 23 -88 -20 -80 -31 -159
-19 -147 5 6 35 53 66 106 62 107 105 150 137 142 11 -3 23 -10 27 -15z m1068
-259 c12 -67 -2 -123 -35 -147 -33 -25 -35 -23 -44 41 -7 43 -4 53 24 98 18
27 36 49 40 49 5 0 11 -18 15 -41z m-59 -921 c-110 -293 -341 -580 -609 -757
-75 -49 -271 -149 -323 -165 -19 -6 -24 0 -38 39 l-15 46 30 11 c70 24 220
104 309 163 188 126 368 325 473 522 35 67 54 92 80 107 19 10 52 36 73 57 21
21 39 39 41 39 2 0 -8 -28 -21 -62z m-1724 -305 c10 -9 18 -28 18 -42 l-1 -26
-15 28 c-21 39 -42 34 -64 -15 -22 -49 -26 -108 -8 -108 7 0 32 19 56 43 l44
42 -6 -55 c-8 -61 -31 -160 -48 -203 -13 -33 -51 -34 -56 -2 l-4 20 16 -20
c21 -27 29 -13 51 89 9 44 19 92 23 106 5 25 5 24 -32 -7 -44 -40 -63 -41 -76
-7 -20 51 34 170 79 174 3 0 13 -7 23 -17z m417 -8 c2 -11 -7 -50 -20 -87
l-23 -67 22 -24 c31 -33 29 -77 -6 -110 -35 -34 -67 -34 -88 -2 -19 29 -14 87
11 136 8 15 15 44 15 64 0 78 76 155 89 90z m160 0 c2 -11 -7 -50 -20 -87
l-23 -67 22 -24 c31 -33 29 -77 -6 -110 -35 -34 -67 -34 -88 -2 -19 29 -14 87
11 136 8 15 15 44 15 64 0 78 76 155 89 90z m-370 -12 c42 -36 52 -203 16
-274 -32 -60 -91 -63 -119 -5 -20 43 -20 95 -1 170 9 33 14 61 11 63 -2 2 -13
-11 -25 -29 -11 -18 -21 -29 -21 -24 0 20 45 79 74 97 38 23 39 23 65 2z
m-223 -540 c29 -38 6 -125 -37 -138 -29 -10 -109 4 -109 18 0 7 4 28 9 47 6
19 15 54 20 76 l11 42 46 -14 c26 -8 53 -22 60 -31z m665 27 c20 -11 27 -40 9
-40 -5 0 -10 4 -10 9 0 16 -38 19 -59 5 -33 -24 -15 -44 38 -44 51 0 71 -13
71 -45 0 -26 -25 -50 -62 -59 -20 -5 -34 0 -55 19 -21 19 -24 24 -11 25 9 0
20 -4 23 -10 9 -15 61 -12 75 5 20 24 -5 45 -55 45 -49 0 -70 18 -61 53 9 37
60 56 97 37z m-330 -120 c15 -41 28 -81 28 -87 1 -23 -19 -14 -29 12 -8 20
-16 25 -45 25 -29 0 -36 -4 -41 -25 -3 -14 -13 -25 -21 -25 -10 0 -13 5 -8 18
4 9 15 40 25 69 25 69 39 95 52 91 6 -2 23 -37 39 -78z"/>
<path d="M806 2990 c-378 -79 -686 -175 -686 -214 0 -14 12 -24 225 -182 204
-151 302 -265 398 -459 43 -86 90 -235 108 -335 l13 -75 8 55 c4 30 19 147 33
260 36 293 69 503 120 757 25 122 45 224 45 227 0 14 -88 2 -264 -34z m159
-184 c-11 -48 -24 -81 -35 -89 -37 -26 -153 -163 -210 -249 l-59 -87 -32 40
-32 40 59 87 c55 83 309 350 321 339 2 -3 -3 -40 -12 -81z"/>
<path d="M3428 1699 c-212 -186 -328 -349 -328 -462 0 -61 13 -85 54 -102 51
-22 101 -3 162 60 61 62 102 142 143 285 32 110 73 292 67 298 -3 2 -46 -33
-98 -79z"/>
<path d="M2955 2016 c-42 -127 -39 -223 6 -166 42 55 64 196 36 234 -11 16
-16 7 -42 -68z"/>
<path d="M2078 774 c-17 -19 -38 -67 -38 -86 0 -5 7 -8 15 -4 12 4 14 0 10
-22 -3 -15 4 -2 15 28 11 30 19 66 18 79 -3 23 -4 23 -20 5z"/>
<path d="M2041 623 c0 -6 -4 -20 -7 -30 -5 -14 -4 -15 5 -7 7 7 11 20 8 30 -3
11 -5 14 -6 7z"/>
<path d="M2054 587 c-5 -12 -15 -21 -22 -19 -18 3 -16 -77 2 -84 19 -7 53 12
67 37 14 26 4 66 -19 78 -14 7 -20 5 -28 -12z"/>
<path d="M2238 774 c-17 -19 -38 -67 -38 -86 0 -5 7 -8 15 -4 12 4 14 0 10
-22 -3 -15 4 -2 15 28 11 30 19 66 18 79 -3 23 -4 23 -20 5z"/>
<path d="M2201 623 c0 -6 -4 -20 -7 -30 -5 -14 -4 -15 5 -7 7 7 11 20 8 30 -3
11 -5 14 -6 7z"/>
<path d="M2214 587 c-5 -12 -15 -21 -22 -19 -18 3 -16 -77 2 -84 19 -7 53 12
67 37 14 26 4 66 -19 78 -14 7 -20 5 -28 -12z"/>
<path d="M1846 738 c-39 -61 -52 -208 -22 -252 22 -35 48 -33 71 7 28 44 29
200 2 240 -21 33 -32 34 -51 5z"/>
<path d="M1585 188 c-19 -65 -19 -74 1 -82 50 -19 87 12 82 70 -3 32 -8 40
-35 51 l-32 13 -16 -52z"/>
<path d="M1963 135 c-11 -34 -10 -35 14 -35 21 0 23 3 17 23 -14 46 -20 48
-31 12z"/>
</g>
</svg>
