<?xml version="1.0" standalone="no"?>
<!DOCTYPE svg PUBLIC "-//W3C//DTD SVG 20010904//EN"
 "http://www.w3.org/TR/2001/REC-SVG-20010904/DTD/svg10.dtd">
<svg version="1.0" xmlns="http://www.w3.org/2000/svg"
 width="176.000000pt" height="177.000000pt" viewBox="0 0 176.000000 177.000000"
 preserveAspectRatio="xMidYMid meet">

<g transform="translate(0.000000,177.000000) scale(0.100000,-0.100000)"
fill="#000000" stroke="none">
<path d="M722 1759 c-178 -31 -319 -107 -458 -244 -183 -181 -264 -372 -264
-620 0 -249 86 -458 258 -629 162 -160 343 -241 569 -253 301 -16 568 104 747
337 295 384 229 928 -149 1233 -75 60 -210 130 -305 157 -86 25 -307 36 -398
19z m-269 -616 c29 4 78 9 110 13 38 5 57 3 57 -4 0 -6 -26 -13 -57 -17 -32
-3 -83 -9 -113 -13 l-55 -7 -18 -73 c-9 -40 -28 -133 -41 -208 -22 -128 -30
-154 -41 -142 -6 6 27 198 56 322 11 48 18 90 16 93 -4 3 -102 -15 -169 -32
-17 -4 -28 -3 -28 3 0 9 52 23 176 47 21 4 34 14 39 28 7 20 8 20 12 3 4 -16
12 -18 56 -13z m467 -132 c0 -5 -7 -26 -17 -47 -22 -52 -46 -156 -30 -130 33
53 75 101 88 101 9 0 16 -15 19 -44 l5 -43 19 21 c24 27 53 27 61 1 9 -29 22
-25 81 25 28 25 55 45 58 45 12 0 5 -28 -8 -33 -20 -8 -41 -76 -28 -89 18 -18
33 3 30 39 -2 30 1 36 17 39 68 10 86 17 104 42 26 35 32 27 18 -25 -6 -23 -7
-46 -3 -50 4 -4 34 20 66 55 68 74 84 78 76 22 -3 -22 -8 -59 -11 -82 l-6 -43
48 53 c26 29 51 52 56 52 17 0 4 -25 -38 -73 -48 -55 -78 -109 -94 -172 -13
-50 -34 -80 -49 -71 -20 12 -13 59 15 106 18 30 30 72 38 128 6 45 11 82 10
82 -1 0 -23 -21 -49 -46 -54 -51 -87 -56 -96 -13 -5 23 -8 25 -37 17 -23 -6
-33 -15 -33 -27 0 -49 -35 -80 -70 -61 -13 7 -20 21 -20 42 0 29 -1 30 -18 15
-23 -21 -61 -22 -68 -2 -9 22 -27 18 -54 -10 -28 -30 -40 -22 -49 32 l-7 38
-43 -73 c-23 -40 -48 -71 -54 -69 -8 3 -11 22 -9 53 l4 49 -24 -23 c-43 -39
-78 -20 -78 44 l0 27 -26 -24 c-14 -13 -40 -48 -56 -76 -43 -76 -64 -71 -44 9
l12 46 -32 -25 c-43 -32 -69 -27 -69 14 l0 31 -42 -39 c-50 -46 -63 -48 -63
-14 0 55 54 122 89 110 15 -4 28 3 51 27 36 37 36 30 -1 -65 -12 -31 -19 -60
-15 -64 9 -9 77 48 101 84 47 71 46 71 42 43 -2 -14 -14 -50 -26 -80 l-21 -55
22 30 c46 61 68 78 83 65 8 -7 15 -24 15 -39 0 -51 14 -57 58 -21 29 23 46 48
62 91 11 32 25 59 31 59 5 0 9 -4 9 -9z"/>
<path d="M478 912 c-17 -19 -38 -57 -38 -68 0 -10 50 37 61 58 13 23 -5 31
-23 10z"/>
</g>
</svg>
